<svg xmlns:svg="http://www.w3.org/2000/svg" xmlns="http://www.w3.org/2000/svg" version="1.1" x="0" y="0" viewBox="0 0 300 300" enable-background="new 0 0 400 400" xml:space="preserve" width="300" height="300">
  <defs>
    <pattern y="0" x="0" height="6" width="6" patternUnits="userSpaceOnUse"/>
  </defs>
  <g transform="scale(0.75,0.75)">
    <rect width="400" height="400" x="0" y="0" ry="200" fill="#b9c39e"/>
    <g transform="matrix(7.8701756,0,0,7.8701756,695.19553,-948.4235)">
      <path d="M149.9 79.2C149.9 79.2 86.7 79.2 70.9 83.3 62.4 85.7 55.4 92.7 53 101.3 48.9 117.2 48.9 150.1 48.9 150.1 48.9 150.1 48.9 183 53 198.7 55.4 207.3 62.2 214.2 70.9 216.5 86.8 220.8 149.9 220.8 149.9 220.8 149.9 220.8 213.3 220.8 229.1 216.7 237.8 214.3 244.6 207.5 246.9 198.8 251.1 183 251.1 150.2 251.1 150.2 251.1 150.2 251.3 117.2 246.9 101.3 244.6 92.7 237.8 85.8 229.1 83.6 213.3 79.2 149.9 79.2 149.9 79.2zM129.8 119.7L182.4 150.1 129.8 180.3 129.8 119.7z" transform="matrix(0.16941596,0,0,0.16941596,-88.332912,120.50856)" fill="#fff"/>
    </g>
  </g>
</svg>