<svg xmlns="http://www.w3.org/2000/svg" width="40" height="40" viewBox="0 0 40 40">
    <g fill="none" fill-rule="evenodd">
        <circle cx="20" cy="20" r="20" fill="#b9c39e"/>
        <path fill="#FFF" fill-rule="nonzero" d="M23.527 13h2.381c.263 0 .476-.224.476-.5V9.132c0-.262-.191-.48-.44-.499-.758-.056-2.238-.133-3.303-.133-2.925 0-4.83 1.84-4.83 5.184V17h-3.335c-.263 0-.476.224-.476.5V21c0 .276.213.5.476.5h3.335V31c0 .276.213.5.476.5h3.334c.263 0 .477-.224.477-.5v-9.5h3.44c.243 0 .446-.192.473-.445l.37-3.5c.032-.296-.189-.555-.473-.555h-3.81v-2.5c0-.829.64-1.5 1.429-1.5z"/>
    </g>
</svg>
