<svg xmlns="http://www.w3.org/2000/svg" width="40" height="40" viewBox="0 0 40 40">
    <g fill="none" fill-rule="evenodd">
        <circle cx="20" cy="20" r="20" fill="#b9c39e"/>
        <path fill="#FFF" fill-rule="nonzero" d="M17.903 8.5h4.038c1.444.007 1.895.025 2.808.069 1.222.054 2.058.251 2.79.534.764.288 1.46.742 2.036 1.326.589.575 1.038 1.267 1.33 2.04.265.68.454 1.457.522 2.552l.013.239c.051 1.17.058 1.58.059 4.323l-.005 2.674c-.008 1.198-.026 1.646-.063 2.485-.054 1.222-.252 2.058-.535 2.79-.597 1.547-1.82 2.769-3.366 3.367-.727.283-1.568.48-2.79.534l-.982.039c-.605.018-1.29.026-2.743.028l-3.106-.003c-1.325-.007-1.775-.025-2.651-.064-1.223-.054-2.058-.251-2.79-.534-.765-.288-1.461-.742-2.037-1.326-.584-.575-1.038-1.267-1.33-2.04-.283-.728-.48-1.569-.535-2.791l-.042-1.108c-.015-.55-.022-1.202-.024-2.437l.002-3.134c.007-1.444.026-1.895.069-2.808.054-1.222.252-2.058.535-2.79.287-.764.741-1.46 1.325-2.036.576-.589 1.268-1.038 2.04-1.33.729-.283 1.569-.481 2.791-.535l.928-.037c.445-.014.923-.022 1.713-.026zm4.186 2.09h-4.15c-1.278.008-1.712.026-2.573.064-1.057.047-1.661.217-2.066.369l-.069.026c-.443.164-.848.413-1.194.735l-.127.123c-.344.328-.613.723-.798 1.157l-.065.165c-.149.382-.325.944-.386 1.952l-.047 1.111c-.018.567-.026 1.192-.029 2.483l.003 3.286c.006 1.104.02 1.582.048 2.235l.016.36c.049 1.12.238 1.73.395 2.135.184.499.476.948.858 1.321.328.34.723.608 1.157.793l.165.066c.382.148.944.325 1.952.386l.95.041c.601.022 1.203.031 2.553.034l3.504-.003c1.198-.008 1.63-.026 2.468-.063 1.12-.05 1.73-.238 2.135-.395 1.002-.387 1.798-1.182 2.184-2.184l.053-.143c.136-.378.28-.92.333-1.81l.01-.182c.044-.995.06-1.416.065-3.228l-.001-3.318c-.007-1.411-.025-1.844-.064-2.743-.047-1.057-.218-1.66-.37-2.065l-.026-.07c-.184-.498-.476-.947-.858-1.32-.328-.34-.723-.609-1.157-.793l-.164-.066c-.382-.148-.945-.325-1.953-.386l-.373-.018c-.739-.032-1.198-.048-2.379-.055zm-2.086 3.502c3.263 0 5.91 2.646 5.91 5.909s-2.647 5.91-5.91 5.91c-3.262 0-5.91-2.647-5.91-5.91 0-3.263 2.648-5.91 5.91-5.91zm0 2.076c-2.116 0-3.833 1.716-3.833 3.833s1.717 3.833 3.833 3.833c2.117 0 3.834-1.716 3.834-3.833s-1.717-3.833-3.834-3.833zm6.143-3.69c.762 0 1.38.618 1.38 1.38 0 .762-.618 1.38-1.38 1.38-.762 0-1.38-.618-1.38-1.38 0-.762.618-1.38 1.38-1.38z"/>
    </g>
</svg>
