<?xml version="1.0" encoding="UTF-8" standalone="no"?>
<!DOCTYPE svg PUBLIC "-//W3C//DTD SVG 1.1//EN" "http://www.w3.org/Graphics/SVG/1.1/DTD/svg11.dtd">
<svg version="1.1" xmlns="http://www.w3.org/2000/svg" xmlns:xlink="http://www.w3.org/1999/xlink" preserveAspectRatio="xMidYMid meet" viewBox="-1 -1 17 17" width="13" height="13"><defs><path d="M6.3 0.85C5.67 3.56 3.56 5.67 0.85 6.3C0.79 6.31 0.51 6.38 0 6.5C0.51 6.62 0.79 6.69 0.85 6.7C3.56 7.33 5.67 9.44 6.3 12.15C6.31 12.21 6.38 12.49 6.5 13C6.62 12.49 6.69 12.21 6.7 12.15C7.33 9.44 9.44 7.33 12.15 6.7C12.21 6.69 12.49 6.62 13 6.5C12.49 6.38 12.21 6.31 12.15 6.3C9.44 5.67 7.33 3.56 6.7 0.85C6.69 0.79 6.62 0.51 6.5 0C6.38 0.51 6.31 0.79 6.3 0.85Z" id="e1VNGd6fUg"></path></defs><g><g><use xlink:href="#e1VNGd6fUg" opacity="1" fill="#000000" fill-opacity="1"></use><g><use xlink:href="#e1VNGd6fUg" opacity="1" fill-opacity="0" stroke="#000000" stroke-width="1" stroke-opacity="0"></use></g></g></g></svg>